<svg xmlns="http://www.w3.org/2000/svg" width="27.167" height="32" viewBox="0 0 27.167 32"><defs><style>.a{fill:#3e3e3e;}</style></defs><path class="a" d="M19.583,25.215c1.868,0,2.784-.705,2.784-2.382s-.917-2.521-2.784-2.521-2.706.844-2.706,2.521S17.716,25.215,19.583,25.215ZM29.771,12.167h-1.7V9.119c0-4.206-3.8-7.619-8.49-7.619s-8.49,3.413-8.49,7.619v3.048H9.4A3.245,3.245,0,0,0,6,15.214V30.452A3.245,3.245,0,0,0,9.4,33.5H29.771a3.245,3.245,0,0,0,3.4-3.048V15.214A3.245,3.245,0,0,0,29.771,12.167ZM14.32,9.119A5.02,5.02,0,0,1,19.583,4.4a5.02,5.02,0,0,1,5.264,4.724v3.048H14.32ZM29.771,30.452H9.4V15.214H29.771Z" transform="translate(-6 -1.5)"/></svg>